<svg class="main-svg" xmlns="http://www.w3.org/2000/svg" xmlns:xlink="http://www.w3.org/1999/xlink" width="800" height="600" style=""><rect x="0" y="0" width="800" height="600" style="fill: rgb(255, 255, 255); fill-opacity: 1;"/><defs id="defs-a18f4f"><g class="gradients"/><g class="clips"/></defs><g class="bglayer"/><g class="layer-below"><g class="imagelayer"/><g class="shapelayer"/></g><g class="cartesianlayer"/><g class="ternarylayer"/><g class="geolayer"/><g class="layer-above"><g class="imagelayer"/><g class="shapelayer"/></g><g class="pielayer"><g stroke-linejoin="round" class="trace" style="opacity: 1;"><g class="top part"><g class="slice"><path class="surface" d="M159.18143730396355,310.0672087866701a43.800000000000004,43.800000000000004 0 1 0 10.318562696036459,-86.36720878667012l0,-65.7a109.5,109.5 0 1 1 -25.796406740091147,215.91802196667527Z" style="pointer-events: all; stroke-width: 0; fill: rgb(17, 123, 215); fill-opacity: 1; stroke: rgb(0, 0, 0); stroke-opacity: 1;"/><g class="slicetext"><text data-notex="1" class="slicetext" transform="translate(245.6087428244021,276.5929514289376)translate(-0.0078125,-3.796875)" text-anchor="middle" x="0" y="0" style="font-family: Raleway; font-size: 12px; fill: rgb(255, 255, 255); fill-opacity: 1; white-space: pre;"><tspan class="line" dy="0em" x="0" y="0">703.218</tspan><tspan class="line" dy="1.3em" x="0" y="0">53.8%</tspan></text></g></g><g class="slice"><path class="surface" d="M169.5,223.7a43.800000000000004,43.800000000000004 0 0 0 -10.318562696036448,86.36720878667012l-15.477844044054688,63.85081318000516a109.5,109.5 0 0 1 25.79640674009112,-215.91802196667527Z" style="pointer-events: all; stroke-width: 0; fill: rgb(54, 50, 153); fill-opacity: 1; stroke: rgb(0, 0, 0); stroke-opacity: 1;"/><g class="slicetext"><text data-notex="1" class="slicetext" transform="translate(93.39125717559789,258.4070485710624)translate(-0.3046875,-3.796875)" text-anchor="middle" x="0" y="0" style="font-family: Raleway; font-size: 12px; fill: rgb(255, 255, 255); fill-opacity: 1; white-space: pre;"><tspan class="line" dy="0em" x="0" y="0">604.243</tspan><tspan class="line" dy="1.3em" x="0" y="0">46.2%</tspan></text></g></g></g></g><g stroke-linejoin="round" class="trace" style="opacity: 1;"><g class="top part"><g class="slice"><path class="surface" d="M363.8235302834091,298.96882129020815a42.34,42.34 0 1 0 28.32646971659088,-73.80882129020817l0,-63.50999999999999a105.85,105.85 0 1 1 -70.8161742914772,184.52205322552044Z" style="pointer-events: all; stroke-width: 0; fill: rgb(54, 50, 153); fill-opacity: 1; stroke: rgb(0, 0, 0); stroke-opacity: 1;"/><g class="slicetext"><text data-notex="1" class="slicetext" transform="translate(461.3255486917937,294.04830480820334)translate(-0.21875,-3.796875)" text-anchor="middle" x="0" y="0" style="font-family: Raleway; font-size: 12px; fill: rgb(255, 255, 255); fill-opacity: 1; white-space: pre;"><tspan class="line" dy="0em" x="0" y="0">6.743</tspan><tspan class="line" dy="1.3em" x="0" y="0">61.7%</tspan></text></g></g><g class="slice"><path class="surface" d="M392.1499999999999,225.16a42.34,42.34 0 0 0 -28.326469716590836,73.80882129020817l-42.48970457488632,47.20323193531227a105.85,105.85 0 0 1 70.81617429147708,-184.52205322552044Z" style="pointer-events: all; stroke-width: 0; fill: rgb(17, 123, 215); fill-opacity: 1; stroke: rgb(0, 0, 0); stroke-opacity: 1;"/><g class="slicetext"><text data-notex="1" class="slicetext" transform="translate(322.9744513082062,240.95169519179672)translate(-0.21875,-3.796875)" text-anchor="middle" x="0" y="0" style="font-family: Raleway; font-size: 12px; fill: rgb(255, 255, 255); fill-opacity: 1; white-space: pre;"><tspan class="line" dy="0em" x="0" y="0">4.192</tspan><tspan class="line" dy="1.3em" x="0" y="0">38.3%</tspan></text></g></g></g></g><g stroke-linejoin="round" class="trace" style="opacity: 1;"><g class="top part"><g class="slice"><path class="surface" d="M632.8515807367947,322.4833646415932a56.94,56.94 0 1 0 14.798419263205194,-111.92336464159317l0,-85.41a142.35,142.35 0 1 1 -36.99604815801298,279.8084116039829Z" style="pointer-events: all; stroke-width: 0; fill: rgb(54, 50, 153); fill-opacity: 1; stroke: rgb(0, 0, 0); stroke-opacity: 1;"/><g class="slicetext"><text data-notex="1" class="slicetext" transform="translate(746.4352631266304,280.56130981189835)translate(-0.2265625,4)" text-anchor="middle" x="0" y="0" style="font-family: Raleway; font-size: 12px; fill: rgb(255, 255, 255); fill-opacity: 1; white-space: pre;">54.2%</text></g></g><g class="slice"><path class="surface" d="M647.65,210.56a56.94,56.94 0 0 0 -14.798419263205204,111.92336464159317l-22.197628894807806,82.47504696238974a142.35,142.35 0 0 1 36.99604815801301,-279.8084116039829Z" style="pointer-events: all; stroke-width: 0; fill: rgb(17, 123, 215); fill-opacity: 1; stroke: rgb(0, 0, 0); stroke-opacity: 1;"/><g class="slicetext"><text data-notex="1" class="slicetext" transform="translate(548.8647368733696,254.43869018810162)translate(-0.21875,4)" text-anchor="middle" x="0" y="0" style="font-family: Raleway; font-size: 12px; fill: rgb(255, 255, 255); fill-opacity: 1; white-space: pre;">45.8%</text></g></g></g></g></g><g class="glimages"/><defs id="topdefs-a18f4f"><clipPath id="legenda18f4f"><rect width="405" height="29" x="0" y="0"/></clipPath></defs><g class="infolayer"><g class="g-gtitle"><text class="gtitle" x="400" y="12.5" text-anchor="middle" style="font-family: Raleway; font-size: 17px; fill: rgb(68, 68, 68); opacity: 1; font-weight: normal; white-space: pre;">Importancia Ciencias Sociales y Jurídicas</text></g><g class="legend" pointer-events="all" transform="translate(60, 558.5)"><rect class="bg" shape-rendering="crispEdges" width="405" height="29" x="0" y="0" style="stroke: rgb(68, 68, 68); stroke-opacity: 1; fill: rgb(255, 255, 255); fill-opacity: 1; stroke-width: 0px;"/><g class="scrollbox" transform="translate(0, 0)" clip-path="url(#legenda18f4f)"><g class="groups"><g class="traces" transform="translate(0, 14.5)" style="opacity: 1;"><g class="layers" style="opacity: 1;"><g class="legendfill"/><g class="legendlines"/><g class="legendsymbols"><g class="legendpoints"><path class="legendpie" d="M6,6H-6V-6H6Z" transform="translate(20,0)" style="stroke-width: 0; fill: rgb(17, 123, 215); fill-opacity: 1; stroke: rgb(0, 0, 0); stroke-opacity: 1;"/></g></g></g><text class="legendtext user-select-none" text-anchor="start" x="40" y="4.680000000000001" style="font-family: Raleway; font-size: 12px; fill: rgb(68, 68, 68); fill-opacity: 1; white-space: pre;">Otros ámbitos</text><rect class="legendtoggle" pointer-events="all" x="0" y="-9.5" width="405" height="19" style="cursor: pointer; fill: rgb(0, 0, 0); fill-opacity: 0;"/></g><g class="traces" transform="translate(202.40625, 14.5)" style="opacity: 1;"><g class="layers" style="opacity: 1;"><g class="legendfill"/><g class="legendlines"/><g class="legendsymbols"><g class="legendpoints"><path class="legendpie" d="M6,6H-6V-6H6Z" transform="translate(20,0)" style="stroke-width: 0; fill: rgb(54, 50, 153); fill-opacity: 1; stroke: rgb(0, 0, 0); stroke-opacity: 1;"/></g></g></g><text class="legendtext user-select-none" text-anchor="start" x="40" y="4.680000000000001" style="font-family: Raleway; font-size: 12px; fill: rgb(68, 68, 68); fill-opacity: 1; white-space: pre;">Ciencias Sociales y Jurídicas</text><rect class="legendtoggle" pointer-events="all" x="0" y="-9.5" width="405" height="19" style="cursor: pointer; fill: rgb(0, 0, 0); fill-opacity: 0;"/></g></g></g><rect class="scrollbar" rx="20" ry="2" width="0" height="0" style="fill: rgb(128, 139, 164); fill-opacity: 1;"/></g><g class="annotation" data-index="0" style="opacity: 1;"><g class="annotation-text-g" transform="rotate(0,172,267.5)"><g class="cursor-default" transform="translate(133, 258)"><rect class="bg" x="0.5" y="0.5" width="77" height="18" style="stroke-width: 1px; stroke: rgb(0, 0, 0); stroke-opacity: 0; fill: rgb(0, 0, 0); fill-opacity: 0;"/><text class="annotation-text" text-anchor="middle" x="39.546875" y="14" style="font-family: 'Open Sans', verdana, arial, sans-serif; font-size: 11px; fill: rgb(68, 68, 68); fill-opacity: 1; white-space: pre;">Total Nacional</text></g></g></g><g class="annotation" data-index="1" style="opacity: 1;"><g class="annotation-text-g" transform="rotate(0,388.5,267.5)"><g class="cursor-default" transform="translate(366, 258)"><rect class="bg" x="0.5" y="0.5" width="44" height="18" style="stroke-width: 1px; stroke: rgb(0, 0, 0); stroke-opacity: 0; fill: rgb(0, 0, 0); fill-opacity: 0;"/><text class="annotation-text" text-anchor="middle" x="22.5625" y="14" style="font-family: 'Open Sans', verdana, arial, sans-serif; font-size: 11px; fill: rgb(68, 68, 68); fill-opacity: 1; white-space: pre;">Navarra</text></g></g></g><g class="annotation" data-index="2" style="opacity: 1;"><g class="annotation-text-g" transform="rotate(0,626.5,267.5)"><g class="cursor-default" transform="translate(609, 258)"><rect class="bg" x="0.5" y="0.5" width="34" height="18" style="stroke-width: 1px; stroke: rgb(0, 0, 0); stroke-opacity: 0; fill: rgb(0, 0, 0); fill-opacity: 0;"/><text class="annotation-text" text-anchor="middle" x="16.9375" y="14" style="font-family: 'Open Sans', verdana, arial, sans-serif; font-size: 11px; fill: rgb(68, 68, 68); fill-opacity: 1; white-space: pre;">UPNA</text></g></g></g></g></svg>